{
  "accessors": [
    {
      "bufferView": 0,
      "componentType": 5126,
      "count": 384,
      "max": [
        2,
        0.05000000074505806,
        2
      ],
      "min": [
        -2,
        -0.05000000074505806,
        -2
      ],
      "type": "VEC3"
    },
    {
      "bufferView": 1,
      "componentType": 5126,
      "count": 384,
      "type": "VEC3"
    },
    {
      "bufferView": 2,
      "componentType": 5126,
      "count": 384,
      "type": "VEC2"
    },
    {
      "bufferView": 3,
      "componentType": 5123,
      "count": 756,
      "type": "SCALAR"
    }
  ],
  "asset": {
    "generator": "Khronos Blender glTF 2.0 I/O",
    "version": "2.0"
  },
  "bufferViews": [
    {
      "buffer": 0,
      "byteLength": 4608,
      "byteOffset": 0
    },
    {
      "buffer": 0,
      "byteLength": 4608,
      "byteOffset": 4608
    },
    {
      "buffer": 0,
      "byteLength": 3072,
      "byteOffset": 9216
    },
    {
      "buffer": 0,
      "byteLength": 1512,
      "byteOffset": 12288
    }
  ],
  "buffers": [
    {
      "uri": "platter_data.bin",
      "byteLength": 13800
    }
  ],
  "extensions": {},
  "materials": [
    {
      "name": "MAT_Green",
      "pbrMetallicRoughness": {
        "baseColorFactor": [
          0.1509999930858612,
          0.25200000405311584,
          0.1509999930858612,
          1
        ],
        "metallicFactor": 0,
        "roughnessFactor": 0.5
      }
    }
  ],
  "meshes": [
    {
      "name": "Cylinder",
      "primitives": [
        {
          "attributes": {
            "NORMAL": 1,
            "POSITION": 0,
            "TEXCOORD_0": 2
          },
          "indices": 3,
          "material": 0
        }
      ]
    }
  ],
  "nodes": [
    {
      "mesh": 0,
      "name": "Cylinder"
    }
  ],
  "scene": 0,
  "scenes": [
    {
      "name": "Scene",
      "nodes": [
        0
      ]
    }
  ]
}