{
  "accessors": [
    {
      "bufferView": 0,
      "componentType": 5126,
      "count": 1616,
      "max": [
        1.9037740230560303,
        0.20000000298023224,
        -0.4592967629432678
      ],
      "min": [
        -1.903774619102478,
        -0.20000000298023224,
        -1.998528003692627
      ],
      "type": "VEC3"
    },
    {
      "bufferView": 1,
      "componentType": 5126,
      "count": 1616,
      "type": "VEC3"
    },
    {
      "bufferView": 2,
      "componentType": 5126,
      "count": 1616,
      "type": "VEC2"
    },
    {
      "bufferView": 3,
      "componentType": 5123,
      "count": 2532,
      "type": "SCALAR"
    },
    {
      "bufferView": 4,
      "componentType": 5126,
      "count": 768,
      "max": [
        0.9950991868972778,
        0.20000000298023224,
        0.9950991868972778
      ],
      "min": [
        -0.9950991868972778,
        -0.20000000298023224,
        -0.9950991868972778
      ],
      "type": "VEC3"
    },
    {
      "bufferView": 5,
      "componentType": 5126,
      "count": 768,
      "type": "VEC3"
    },
    {
      "bufferView": 6,
      "componentType": 5126,
      "count": 768,
      "type": "VEC2"
    },
    {
      "bufferView": 7,
      "componentType": 5123,
      "count": 1140,
      "type": "SCALAR"
    },
    {
      "bufferView": 8,
      "componentType": 5126,
      "count": 1620,
      "max": [
        1.9071428775787354,
        0.20000000298023224,
        -0.5199320316314697
      ],
      "min": [
        -1.907143473625183,
        -0.20000000298023224,
        -1.999018669128418
      ],
      "type": "VEC3"
    },
    {
      "bufferView": 9,
      "componentType": 5126,
      "count": 1620,
      "type": "VEC3"
    },
    {
      "bufferView": 10,
      "componentType": 5126,
      "count": 1620,
      "type": "VEC2"
    },
    {
      "bufferView": 11,
      "componentType": 5123,
      "count": 2532,
      "type": "SCALAR"
    },
    {
      "bufferView": 12,
      "componentType": 5126,
      "count": 1618,
      "max": [
        1.9071428775787354,
        0.20000000298023224,
        -0.4862457513809204
      ],
      "min": [
        -1.907143473625183,
        -0.20000000298023224,
        -1.999018669128418
      ],
      "type": "VEC3"
    },
    {
      "bufferView": 13,
      "componentType": 5126,
      "count": 1618,
      "type": "VEC3"
    },
    {
      "bufferView": 14,
      "componentType": 5126,
      "count": 1618,
      "type": "VEC2"
    },
    {
      "bufferView": 15,
      "componentType": 5123,
      "count": 2532,
      "type": "SCALAR"
    }
  ],
  "asset": {
    "generator": "Khronos Blender glTF 2.0 I/O",
    "version": "2.0"
  },
  "bufferViews": [
    {
      "buffer": 0,
      "byteLength": 19392,
      "byteOffset": 0
    },
    {
      "buffer": 0,
      "byteLength": 19392,
      "byteOffset": 19392
    },
    {
      "buffer": 0,
      "byteLength": 12928,
      "byteOffset": 38784
    },
    {
      "buffer": 0,
      "byteLength": 5064,
      "byteOffset": 51712
    },
    {
      "buffer": 0,
      "byteLength": 9216,
      "byteOffset": 56776
    },
    {
      "buffer": 0,
      "byteLength": 9216,
      "byteOffset": 65992
    },
    {
      "buffer": 0,
      "byteLength": 6144,
      "byteOffset": 75208
    },
    {
      "buffer": 0,
      "byteLength": 2280,
      "byteOffset": 81352
    },
    {
      "buffer": 0,
      "byteLength": 19440,
      "byteOffset": 83632
    },
    {
      "buffer": 0,
      "byteLength": 19440,
      "byteOffset": 103072
    },
    {
      "buffer": 0,
      "byteLength": 12960,
      "byteOffset": 122512
    },
    {
      "buffer": 0,
      "byteLength": 5064,
      "byteOffset": 135472
    },
    {
      "buffer": 0,
      "byteLength": 19416,
      "byteOffset": 140536
    },
    {
      "buffer": 0,
      "byteLength": 19416,
      "byteOffset": 159952
    },
    {
      "buffer": 0,
      "byteLength": 12944,
      "byteOffset": 179368
    },
    {
      "buffer": 0,
      "byteLength": 5064,
      "byteOffset": 192312
    }
  ],
  "buffers": [
    {
      "uri": "wifi_data.bin",
      "byteLength": 197376
    }
  ],
  "extensions": {},
  "materials": [
    {
      "name": "mat_base",
      "pbrMetallicRoughness": {
        "baseColorFactor": [
          0.800000011920929,
          0.800000011920929,
          0.800000011920929,
          1
        ],
        "metallicFactor": 0,
        "roughnessFactor": 0.5
      }
    }
  ],
  "meshes": [
    {
      "name": "Cylinder.004",
      "primitives": [
        {
          "attributes": {
            "NORMAL": 1,
            "POSITION": 0,
            "TEXCOORD_0": 2
          },
          "indices": 3
        }
      ]
    },
    {
      "name": "Cylinder.004",
      "primitives": [
        {
          "attributes": {
            "NORMAL": 5,
            "POSITION": 4,
            "TEXCOORD_0": 6
          },
          "indices": 7,
          "material": 0
        }
      ]
    },
    {
      "name": "Cylinder.004",
      "primitives": [
        {
          "attributes": {
            "NORMAL": 9,
            "POSITION": 8,
            "TEXCOORD_0": 10
          },
          "indices": 11
        }
      ]
    },
    {
      "name": "Cylinder.004",
      "primitives": [
        {
          "attributes": {
            "NORMAL": 13,
            "POSITION": 12,
            "TEXCOORD_0": 14
          },
          "indices": 15
        }
      ]
    }
  ],
  "nodes": [
    {
      "mesh": 0,
      "name": "circle1"
    },
    {
      "mesh": 1,
      "name": "wifiBase"
    },
    {
      "mesh": 2,
      "name": "circle3",
      "scale": [
        1.9485539197921753,
        1.001526951789856,
        1.9485539197921753
      ],
      "translation": [
        0,
        0,
        -0.18906766176223755
      ]
    },
    {
      "mesh": 3,
      "name": "circle2",
      "scale": [
        1.4797314405441284,
        0.9969092607498169,
        1.4797314405441284
      ],
      "translation": [
        0,
        0,
        -0.10000002384185791
      ]
    }
  ],
  "scene": 0,
  "scenes": [
    {
      "name": "Scene",
      "nodes": [
        0,
        1,
        2,
        3
      ]
    }
  ]
}